<?xml version="1.0" ?><svg height="40" id="svg8" version="1.1" viewBox="0 0 8.4666665 8.4666669" width="40" xmlns="http://www.w3.org/2000/svg" xmlns:cc="http://creativecommons.org/ns#" xmlns:dc="http://purl.org/dc/elements/1.1/" xmlns:inkscape="http://www.inkscape.org/namespaces/inkscape" xmlns:rdf="http://www.w3.org/1999/02/22-rdf-syntax-ns#" xmlns:sodipodi="http://sodipodi.sourceforge.net/DTD/sodipodi-0.dtd" xmlns:svg="http://www.w3.org/2000/svg"><defs id="defs2"/><g id="layer1" transform="translate(0,-288.53331)"><path d="M 15.900391 1.0039062 A 1.0001 1.0001 0 0 0 15.494141 1.1445312 C 12.708607 1.3119643 10.246082 2.7566469 8.6816406 5.0566406 C 8.4572539 5.0339635 8.235538 4.9991807 8.0097656 4.9980469 A 1.0001 1.0001 0 0 0 8.0019531 4.9980469 C 4.1478045 4.9980469 0.99609375 8.1478177 0.99609375 12.001953 C 0.99609375 15.813894 4.0805624 18.926286 7.8769531 18.994141 A 1.0001001 1.0001001 0 0 0 6.9980469 19.998047 L 6.9980469 21.998047 A 1.0002461 1.0002461 0 0 0 8.9980469 21.998047 L 8.9980469 19.998047 A 1.0001001 1.0001001 0 0 0 8.0976562 18.990234 C 9.3968109 18.963373 10.601303 18.426845 11.693359 17.730469 C 11.882093 17.8352 12.078086 17.924095 12.271484 18.019531 L 11.050781 21.683594 A 1.0000999 1.0000999 0 0 0 12 23 L 12.71875 23 L 11.029297 29.757812 A 1.0000999 1.0000999 0 0 0 12.707031 30.707031 L 20.707031 22.707031 A 1.0000999 1.0000999 0 0 0 20 21 L 19.388672 21 L 20.556641 17.496094 C 20.743788 17.376586 20.938007 17.269473 21.119141 17.140625 C 22.216395 18.143938 23.494204 18.99932 25.001953 19 C 28.303805 19 30.996077 16.301833 30.996094 13 C 30.996102 9.6981291 28.303822 6.9980469 25.001953 6.9980469 A 1.0001 1.0001 0 0 0 24.994141 6.9980469 C 24.732503 6.9988028 24.479517 7.0667908 24.220703 7.1015625 C 22.948016 3.5789672 19.819952 1.0083283 16.003906 1.0039062 A 1.0001 1.0001 0 0 0 15.996094 1.0039062 A 1.0001 1.0001 0 0 0 15.900391 1.0039062 z M 15.996094 2.9960938 L 16.003906 2.9960938 C 19.247638 3.0036528 22.055002 5.2277263 22.802734 8.3847656 A 1.0001 1.0001 0 0 0 24.021484 9.1230469 C 24.341637 9.0410311 24.671485 8.9991807 25.001953 8.9980469 C 27.222941 8.9980469 29.003912 10.778998 29.003906 13 C 29.003895 15.220964 27.222929 17 25.001953 17 C 23.793611 16.999471 22.653996 16.45548 21.894531 15.515625 A 1.0001 1.0001 0 0 0 20.470703 15.376953 C 20.070555 15.71083 19.633283 15.99015 19.175781 16.224609 A 1.0000999 1.0000999 0 0 0 19.171875 16.226562 C 18.688537 16.474986 18.178224 16.663323 17.654297 16.792969 C 17.631623 16.798529 17.608673 16.803259 17.585938 16.808594 C 17.362446 16.861523 17.136121 16.902831 16.908203 16.933594 C 16.859393 16.940075 16.810715 16.947669 16.761719 16.953125 C 16.510336 16.981662 16.258126 16.998822 16.003906 17 C 15.995376 16.999987 15.987044 16.998091 15.978516 16.998047 C 15.620062 16.99511 15.26307 16.964367 14.910156 16.90625 C 14.866694 16.899361 14.824556 16.886603 14.78125 16.878906 C 14.450989 16.818088 14.123587 16.738486 13.804688 16.630859 C 13.801539 16.629797 13.798069 16.629973 13.794922 16.628906 C 13.246114 16.446547 12.715213 16.207793 12.224609 15.892578 A 1.0001 1.0001 0 0 0 11.072266 15.945312 C 10.19421 16.63039 9.1156487 16.999395 8.0019531 17 C 5.2286847 17 2.9960937 14.775219 2.9960938 12.001953 C 2.9960938 9.2311815 5.2243146 7.0019776 7.9941406 6.9980469 C 8.279597 6.9997099 8.5627538 7.0271014 8.84375 7.078125 A 1.0001 1.0001 0 0 0 9.8925781 6.5839844 C 11.129351 4.3735277 13.46357 2.9996843 15.996094 2.9960938 z M 18.044922 18.695312 C 18.045511 18.695138 18.046285 18.695487 18.046875 18.695312 L 17.050781 21.683594 A 1.0000999 1.0000999 0 0 0 17.650391 22.935547 L 13.845703 26.740234 L 14.970703 22.242188 A 1.0000999 1.0000999 0 0 0 14 21 L 13.388672 21 L 14.144531 18.730469 C 14.562975 18.841226 14.988619 18.913406 15.421875 18.951172 C 15.611208 18.978335 15.801358 18.998951 15.994141 19 C 15.994796 19.000001 15.995438 18.999999 15.996094 19 A 1.0000999 1.0000999 0 0 0 16.003906 19 C 16.70538 18.998937 17.386921 18.88961 18.044922 18.695312 z M 23.984375 18.986328 A 1.0001001 1.0001001 0 0 0 23.001953 19.998047 L 23.001953 21.998047 A 1.0002461 1.0002461 0 0 0 25.001953 21.998047 L 25.001953 19.998047 A 1.0001001 1.0001001 0 0 0 23.984375 18.986328 z M 7.9863281 24.986328 A 1.0001001 1.0001001 0 0 0 6.9980469 25.998047 L 6.9980469 28 A 1.0002461 1.0002461 0 0 0 8.9980469 28 L 8.9980469 25.998047 A 1.0001001 1.0001001 0 0 0 7.9863281 24.986328 z M 23.984375 24.986328 A 1.0001001 1.0001001 0 0 0 23.001953 25.998047 L 23.001953 28 A 1.0002461 1.0002461 0 0 0 25.001953 28 L 25.001953 25.998047 A 1.0001001 1.0001001 0 0 0 23.984375 24.986328 z " id="path4870" style="color:#fff;font-style:normal;font-variant:normal;font-weight:normal;font-stretch:normal;font-size:medium;line-height:normal;font-family:sans-serif;font-variant-ligatures:normal;font-variant-position:normal;font-variant-caps:normal;font-variant-numeric:normal;font-variant-alternates:normal;font-feature-settings:normal;text-indent:0;text-align:start;text-decoration:none;text-decoration-line:none;text-decoration-style:solid;text-decoration-color:#fff;letter-spacing:normal;word-spacing:normal;text-transform:none;writing-mode:lr-tb;direction:ltr;text-orientation:mixed;dominant-baseline:auto;baseline-shift:baseline;text-anchor:start;white-space:normal;shape-padding:0;clip-rule:nonzero;display:inline;overflow:visible;visibility:visible;opacity:1;isolation:auto;mix-blend-mode:normal;color-interpolation:sRGB;color-interpolation-filters:linearRGB;solid-color:#fff;solid-opacity:1;vector-effect:none;fill:#fff;fill-opacity:1;fill-rule:nonzero;stroke:none;stroke-width:1.99999988;stroke-linecap:round;stroke-linejoin:round;stroke-miterlimit:4;stroke-dasharray:none;stroke-dashoffset:0;stroke-opacity:1;paint-order:fill markers stroke;color-rendering:auto;image-rendering:auto;shape-rendering:auto;text-rendering:auto;enable-background:accumulate" transform="matrix(0.26458333,0,0,0.26458333,0,288.53331)"/></g></svg>