<svg width="48" height="48" viewBox="0 0 48 48" fill="none" xmlns="http://www.w3.org/2000/svg">
<path fill-rule="evenodd" clip-rule="evenodd" d="M20.9916 24.0018L13.3214 28.488L7.24148 25.6971L5.99341 28.4426L10.1426 30.3473L7.86032 31.6821L9.34575 34.2886L11.6277 32.9539L11.1813 37.5457L14.1524 37.8235L14.8065 31.0947L22.4803 26.6063V35.6292L17.0504 39.5702L18.8126 41.9981L22.4803 39.3361V42H25.4803V39.336L29.1482 41.9981L30.9103 39.5702L25.4803 35.6291V26.6272L33.1712 31.1255L33.8254 37.855L36.7964 37.5772L36.35 32.9847L38.6324 34.3197L40.1179 31.7133L37.8358 30.3785L41.9843 28.4742L40.7363 25.7287L34.657 28.5193L26.9333 24.0018L34.6332 19.4983L40.7526 22.3073L42.0007 19.5618L37.812 17.639L40.1209 16.2886L38.6354 13.6821L36.3707 15.0068L36.8128 10.4587L33.8417 10.1809L33.1919 16.866L25.4803 21.3764V12.4013L30.9452 8.43491L29.183 6.00699L25.4803 8.69444V6H22.4803V8.64368L18.8474 6.00699L17.0853 8.43491L22.4803 12.3506V21.3973L14.83 16.9227L14.1717 10.1497L11.2006 10.4275L11.6512 15.0635L9.34275 13.7133L7.85731 16.3197L10.122 17.6443L6.01269 19.5306L7.26076 22.2761L13.3008 19.5035L20.9916 24.0018Z" fill="white"/>
</svg>
